# xmcd CD database file
#
# Track frame offsets:
#	150
#	38530
#	70612
#	103755
#	142955
#	166032
#	207652
#	249290
#
# Disc length: 4101 seconds
#
# Revision: 0
# Processed by: cddbd v1.5.1PL2 Copyright (c) Steve Scherf et al.
# Submitted via: CDex 1.51
#
DISCID=62100308
DTITLE=Loyola Jazz Combo - Loyola University Jazz Emsemble
DYEAR=1999
DGENRE=Jazz
TTITLE0=Smoke Rings
TTITLE1=Breakfast with Lil' J
TTITLE2=Patience
TTITLE3=Watercolors
TTITLE4=Home Free
TTITLE5=Go Ahead
TTITLE6=THe Blue Room
TTITLE7=Wastin' Time
EXTD=YEAR: 1999
EXTT0=
EXTT1=
EXTT2=
EXTT3=
EXTT4=
EXTT5=
EXTT6=
EXTT7=
PLAYORDER=
